<?xml version="1.0" standalone="no"?>
<!DOCTYPE svg PUBLIC "-//W3C//DTD SVG 20010904//EN"
 "http://www.w3.org/TR/2001/REC-SVG-20010904/DTD/svg10.dtd">
<svg version="1.0" xmlns="http://www.w3.org/2000/svg"
 width="512.000000pt" height="512.000000pt" viewBox="0 0 512.000000 512.000000"
 preserveAspectRatio="xMidYMid meet">
<metadata>
Created by potrace 1.14, written by Peter Selinger 2001-2017
</metadata>
<g transform="translate(0.000000,512.000000) scale(0.100000,-0.100000)"
fill="#000000" stroke="none">
<path d="M2423 4543 c-72 -126 -190 -331 -262 -456 -73 -126 -140 -243 -150
-260 -285 -497 -292 -509 -340 -530 -134 -59 -242 -187 -285 -337 -20 -70 -26
-111 -31 -202 -3 -78 4 -62 -143 -313 l-42 -70 0 471 c0 369 -3 473 -13 476
-17 5 -335 3 -341 -3 -4 -4 -57 -198 -131 -484 -68 -264 -77 -295 -85 -290 -4
3 -11 19 -14 37 -9 49 -14 68 -31 128 -9 30 -18 66 -21 80 -2 14 -9 36 -14 50
-5 14 -12 37 -14 52 -3 15 -8 33 -11 38 -4 6 -8 21 -10 33 -4 26 -8 42 -30
122 -9 33 -26 96 -37 140 -11 44 -26 85 -33 90 -9 8 -309 13 -345 6 -3 -1 -5
-264 -5 -586 l0 -585 110 0 110 0 1 118 c4 542 7 772 9 772 3 0 42 -142 49
-180 3 -14 9 -40 15 -57 5 -18 8 -33 5 -33 -3 0 0 -8 5 -17 5 -10 11 -31 14
-48 8 -42 13 -63 28 -115 6 -25 13 -52 14 -60 3 -16 69 -283 85 -342 l11 -38
113 0 113 0 64 258 c34 141 63 259 64 262 9 51 90 368 94 365 2 -3 5 -152 7
-333 1 -180 3 -377 3 -439 l1 -112 45 -3 44 -3 -61 -105 c-33 -58 -72 -125
-85 -150 -14 -25 -38 -65 -53 -90 -15 -25 -72 -124 -128 -220 -55 -96 -108
-189 -118 -207 -11 -18 -53 -92 -95 -165 -43 -73 -117 -203 -167 -288 -179
-310 -309 -535 -321 -557 l-11 -22 2560 0 2560 0 -11 22 c-7 12 -53 92 -102
177 -49 85 -99 171 -109 190 -11 19 -37 64 -58 100 -21 36 -47 81 -58 100 -10
19 -144 251 -297 515 -153 264 -288 498 -300 520 -13 22 -59 102 -102 177
l-80 137 1 516 c1 450 -1 518 -14 524 -12 5 -122 7 -206 2 -21 -1 -21 -3 -20
-311 1 -259 -1 -307 -12 -293 -7 10 -43 70 -79 133 -36 63 -74 129 -84 145
-10 17 -22 37 -26 44 -4 8 14 74 39 147 31 89 42 134 35 136 -7 2 -63 3 -125
3 l-112 -2 -32 56 c-18 31 -137 238 -266 461 -243 419 -257 444 -301 521 -122
215 -236 409 -241 409 -3 0 -65 -102 -137 -227z"/>
<path d="M4237 3320 c-9 -4 -12 -139 -11 -585 l0 -580 446 -3 445 -2 1 100 2
100 -53 1 c-28 0 -176 1 -327 2 l-275 2 0 155 0 155 290 2 c160 0 292 1 295 2
3 1 5 45 5 98 l-1 98 -295 5 -295 5 0 123 0 122 45 1 c25 0 168 1 316 2 l270
2 1 93 c1 58 -3 95 -10 99 -12 8 -830 11 -849 3z"/>
</g>
</svg>
